<svg xmlns="http://www.w3.org/2000/svg" viewBox="0 0 620 440" role="img" aria-labelledby="title desc">
  <title id="title">Motivierende Lernreise</title><desc id="desc">Ein Kind steigt über Zahlenstufen zu einem Stern auf.</desc>
  <rect width="620" height="440" rx="42" fill="#e5f1ff"/>
  <circle cx="515" cy="82" r="42" fill="#ffcf4a"/>
  <path d="M500 82l10 10 22-27" fill="none" stroke="#18324a" stroke-width="8" stroke-linecap="round" stroke-linejoin="round"/>
  <path d="M54 380h125v-62h105v-62h105v-62h145" fill="none" stroke="#2463a9" stroke-width="34" stroke-linejoin="round"/>
  <g fill="#fff" font-family="system-ui,sans-serif" font-size="25" font-weight="700" text-anchor="middle"><text x="118" y="365">1</text><text x="231" y="303">2</text><text x="336" y="241">3</text><text x="461" y="179">★</text></g>
  <circle cx="255" cy="165" r="31" fill="#f2b28f"/><path d="M220 151q35-56 70 0" fill="#724c35"/>
  <path d="M245 197l-34 68 46 18 36-70z" fill="#45ad73"/><path d="M233 216l-48 38M281 215l42 28" stroke="#18324a" stroke-width="12" stroke-linecap="round"/><path d="M235 279l-19 50M274 282l18 38" stroke="#18324a" stroke-width="14" stroke-linecap="round"/>
  <circle cx="245" cy="165" r="4" fill="#18324a"/><circle cx="266" cy="165" r="4" fill="#18324a"/><path d="M246 180q11 9 22 0" fill="none" stroke="#18324a" stroke-width="4" stroke-linecap="round"/>
  <text x="86" y="74" fill="#194b83" font-family="system-ui,sans-serif" font-size="28" font-weight="700">Schritt für Schritt</text><text x="86" y="108" fill="#587086" font-family="system-ui,sans-serif" font-size="22">wirst du sicherer!</text>
</svg>
