<svg xmlns="http://www.w3.org/2000/svg" viewBox="0 0 720 430" role="img" aria-labelledby="title desc"><title id="title">Rechen-Abenteuer</title><desc id="desc">Ein fröhlicher Weg führt an Mal- und Geteiltzeichen vorbei zu einem Stern.</desc><defs><linearGradient id="sky" x1="0" y1="0" x2="1" y2="1"><stop stop-color="#dff3ff"/><stop offset="1" stop-color="#fff1bf"/></linearGradient><linearGradient id="path" x1="0" y1="0" x2="1" y2="0"><stop stop-color="#6ab7ff"/><stop offset="1" stop-color="#725cff"/></linearGradient></defs><rect width="720" height="430" rx="40" fill="url(#sky)"/><circle cx="620" cy="78" r="38" fill="#ffd75e" opacity=".85"/><path d="M38 356C144 278 218 384 328 285s193-59 329-190" fill="none" stroke="url(#path)" stroke-width="24" stroke-linecap="round" stroke-dasharray="18 18"/><g transform="translate(86 276)"><rect width="126" height="95" rx="22" fill="#fff" stroke="#2e5ca8" stroke-width="5"/><circle cx="39" cy="38" r="19" fill="#ffdf78"/><path d="M30 38h18M39 29v18" stroke="#2e5ca8" stroke-width="5" stroke-linecap="round"/><circle cx="91" cy="38" r="19" fill="#b9edcf"/><path d="M81 38h20" stroke="#2e5ca8" stroke-width="5" stroke-linecap="round"/><path d="M33 73q30 20 61 0" fill="none" stroke="#2e5ca8" stroke-width="5" stroke-linecap="round"/></g><g font-family="Arial,sans-serif" font-weight="700" text-anchor="middle"><circle cx="300" cy="240" r="42" fill="#fff" stroke="#ef8a42" stroke-width="6"/><text x="300" y="254" font-size="48" fill="#2e5ca8">×</text><circle cx="465" cy="191" r="42" fill="#fff" stroke="#55b987" stroke-width="6"/><text x="465" y="204" font-size="48" fill="#2e5ca8">÷</text></g><path d="M625 115l15 39 42 2-33 26 11 41-35-23-35 23 11-41-33-26 42-2z" fill="#ffd75e" stroke="#2e5ca8" stroke-width="6"/><g fill="#55b987"><path d="M0 393h720v37H0z"/><circle cx="72" cy="392" r="42"/><circle cx="680" cy="395" r="53"/></g></svg>
