<svg xmlns="http://www.w3.org/2000/svg" viewBox="0 0 720 430" role="img" aria-labelledby="title desc"><title id="title">Zahlenraum-Abenteuer</title><desc id="desc">Stellenwertkarten und ein Zahlenstrahl führen zu einem Zielstern.</desc><defs><linearGradient id="bg" x1="0" y1="0" x2="1" y2="1"><stop stop-color="#e1f2ff"/><stop offset="1" stop-color="#fff0c8"/></linearGradient><linearGradient id="road" x1="0" y1="0" x2="1" y2="0"><stop stop-color="#55a9f3"/><stop offset="1" stop-color="#7865df"/></linearGradient></defs><rect width="720" height="430" rx="40" fill="url(#bg)"/><path d="M45 342C160 260 230 370 347 270s190-57 322-183" fill="none" stroke="url(#road)" stroke-width="22" stroke-linecap="round" stroke-dasharray="18 18"/><g font-family="Arial,sans-serif" font-weight="700" text-anchor="middle"><g transform="translate(92 252)"><rect width="105" height="92" rx="20" fill="#fff" stroke="#2f5ca8" stroke-width="5"/><text x="52" y="38" font-size="25" fill="#2f5ca8">H Z E</text><text x="52" y="72" font-size="30" fill="#ef8b42">472</text></g><circle cx="318" cy="233" r="42" fill="#fff" stroke="#55b987" stroke-width="6"/><text x="318" y="244" font-size="29" fill="#2f5ca8">500</text><circle cx="484" cy="173" r="42" fill="#fff" stroke="#ef8b42" stroke-width="6"/><text x="484" y="184" font-size="29" fill="#2f5ca8">750</text></g><path d="M630 80l14 37 40 2-31 25 10 39-33-22-34 22 11-39-32-25 40-2z" fill="#ffd75e" stroke="#2f5ca8" stroke-width="6"/><path d="M38 380h644" stroke="#2f5ca8" stroke-width="5"/><g stroke="#2f5ca8" stroke-width="4"><path d="M50 365v30M205 370v20M360 365v30M515 370v20M670 365v30"/></g><g fill="#55b987"><path d="M0 402h720v28H0z"/><circle cx="55" cy="398" r="36"/><circle cx="690" cy="400" r="44"/></g></svg>
